<svg version="1.0" xmlns="http://www.w3.org/2000/svg" width="1000" height="1410.667" viewBox="0 0 750 1058"><g fill="#fff"><path d="M356.8 28.4c-3.2.7-6.8 2.2-8.1 3.4-1.7 1.6-5.8 2.9-15.3 4.8-18.7 3.8-19.7 4-32.7 7.3-23 6-40.9 12.6-60.3 22.2-35.6 17.6-54.7 36.6-70.4 69.5-17.4 36.7-21.9 70.9-17.5 132.4 1.9 27.1 1.9 39-.2 48.6-1.2 5.6-1.7 12.6-1.8 23.9 0 14.7.2 16.4 2.3 21.2 3 6.5 5.5 8.9 11.4 10.4 3.7 1 5.8 1 9.9.1 4.8-1.1 25.5-9.4 42.9-17.1 3.6-1.6 10.8-4.6 16-6.6 5.2-2 10.6-4.2 12-4.7 8.7-3.6 42.7-14.1 53.8-16.7 58.4-13.5 115.5-11.7 173.2 5.5 18.1 5.4 45.9 15.6 63.5 23.4 2.2 1 8.1 3.4 13 5.5 5 2.1 11.9 5 15.5 6.5 12.9 5.5 18.7 6.2 25 3 4.6-2.3 8.3-7.5 10.1-14 1.7-6.4 1.3-25.8-.7-36.5-2.2-11.2-2.4-28.9-.5-56 2.7-39.2.3-78.6-5.8-97.2-1-3.2-3.1-9.6-4.6-14.2-6.4-20-21.1-44.1-35.3-57.9-28.1-27.2-71.1-45.9-135.8-58.7-9.1-1.9-13.5-3.2-15.1-4.7-1.2-1.1-4.8-2.6-8-3.4-7.2-1.7-28.7-1.7-36.5 0zm-2.3 56.1 2.5 2.4v64.2l-2.5 2.4c-3 3.1-9.2 3.4-12.6.6l-2.4-1.9-.3-31.4c-.2-19.8.1-32.5.7-34.2 2-5 10.5-6.3 14.6-2.1zm23.1 0c2.3 2.3 2.5 3.1 2.2 11.2l-.3 8.8h-6L373 96c-.4-6.7-.8-8.5-2-8.5-2.8 0-1.4 11.8 3.9 33.3 5.9 23.3 6.3 29.1 2.6 32.7-1.7 1.7-3.5 2.5-6 2.5-7.4 0-9.5-3.5-9.5-15.6V133h7v7.9c0 5.3.4 8.2 1.3 9 2 1.6 2.7.3 2.7-5.3-.1-5.9-1.1-10.9-6.9-32.9-4.4-16.8-4.7-19.6-3-24.4 1.9-5.6 10.1-7.2 14.5-2.8zm-65-.4c.4.8.9.8 1.7 0 1.5-1.5 7.4-1.4 8 .1.4 1 .7 1 1.8 0 2.1-1.9 7.7-1.5 8.9.7.6 1.3 1 14.5 1 36V155h-7v-33.5c0-32.8 0-33.5-2-33.5s-2 .7-2 33.5V155h-6v-32.9c0-26.3-.3-33.1-1.3-34-.8-.6-1.7-.8-2-.4-.4.3-.7 15.6-.7 34V155h-7V83h2.9c1.7 0 3.3.5 3.7 1.1zM402 86c0 2.7-.3 3-3 3h-3v66h-6V89h-3c-2.7 0-3-.3-3-3v-3h18v3zm11 30v33h4c3.8 0 4 .2 4 3v3h-15V83h7v33zm19.2-14.8c.2 11.4.7 18.3 1.3 18.3.6 0 1.1-6.9 1.3-18.3L435 83h7v68.9l-2.6 2c-3.4 2.7-9.4 2.8-12.5.2-2.2-1.8-2.4-2.7-2.7-13.5l-.4-11.6h8.1l.3 10.7c.4 15.5 2.2 13.8 2.6-2.2l.3-13.1-4 .4c-6.6.6-7.1-1-7.1-23V83h8l.2 18.2zM336 164.8c2.1 1.7 2.3 2.8 2.4 10.8l.1 8.9-3.2.3-3.2.3-.3-8.3c-.3-7-.6-8.3-2-8.6-3.2-.6-2.2 9 3.4 31.4 7 28.3 6.8 35.2-.9 36.7-3.6.7-9.1-1.1-10.3-3.3-.5-1-1-5.9-1-10.9V213h7v9c0 7.4.3 9 1.5 9 .9 0 1.8-.7 2.2-1.6 1-2.6-1.4-15.7-5.8-31.9-2.4-8.5-4.4-18.3-4.6-22.6-.5-6.8-.3-7.9 1.6-9.8 2.7-2.7 9.9-2.9 13.1-.3zm46.5.5c1.3 2.1 1.5 7.2 1.3 36.3l-.3 33.9h-6L377 202c-.4-28.9-.7-33.5-2-33.5s-1.5 4.5-1.8 33.7L373 236h-6v-72h3c1.7 0 3 .5 3 1.1 0 .5 1 .3 2.2-.5 3.2-2.2 5.5-2 7.3.7zm21.6-1.3c1.8 1 1.9 2.5 1.9 36.5V236h-6l-.2-33.7c-.3-31.2-.4-33.8-2-34.1-1.7-.3-1.8 2-2 33.5l-.3 33.8h-6l-.3-35.8-.2-35.8 4.5.2c2.4.2 4.8 0 5.1-.4 1-1 3.2-.9 5.5.3zM351 197.6c0 31.4.1 33.5 1.8 33.2 1.6-.3 1.7-2.8 2-33.6l.2-33.2h6v34.3c0 39.3.3 37.8-8.6 38-3.8 0-5.1-.4-6.6-2.2-1.7-2.2-1.8-4.8-1.8-36.2V164h7v33.6zm68.2-15.9c.3 15 .5 17.8 1.8 17.8s1.5-2.8 1.8-17.8l.2-17.7h7v33.6c0 20.7-.4 34.3-1 35.4-1.4 2.7-7.1 4.1-11.5 2.9-1.9-.6-3.9-1.8-4.5-2.9-.5-1-1-6.8-1-12.9V209h6.9l.3 10.7c.2 8.8.6 10.8 1.8 10.8 1.2 0 1.5-2.2 1.8-12.7l.3-12.7-3.5.6c-2.6.4-3.9 0-5.5-1.6-2-2-2.1-3.1-2.1-21.1v-19h7l.2 17.7z"/><path d="M346.5 88.2c-.3.7-.4 15-.3 31.8.3 26.3.5 30.5 1.8 30.5s1.5-4.2 1.5-31.4c0-24.3-.3-31.5-1.2-31.8-.7-.3-1.5.1-1.8.9zM215.9 368c-7 2.1-16.3 13.5-23.9 29-3.4 7.2-4 9.3-4 15.1 0 9.2 1.3 10.1 7.6 5.1 9.8-7.6 14.7-10.1 28.7-14.6 20.3-6.5 22.3-6.8 42.9-6.3 25.6.6 52.3 3.2 66.1 6.6 4.7 1.1 4.9-.3.7-8.6-3.5-7-4.8-7.8-17.3-9.9-7-1.2-9.8-2.1-11.8-4-2.9-2.8-7.7-4.4-13-4.4-1.9 0-7.3-1-12-2.1-7.3-1.9-10.3-2.1-22.7-1.6-14.2.5-14.3.5-15.2-1.8-.5-1.2-1.6-2.5-2.5-2.9-2.3-.9-20.4-.6-23.6.4zM511.2 367.7c-.7.3-1.7 1.5-2.2 2.8-.9 2.3-1 2.3-15.7 1.8-11.9-.4-16.1-.2-21.3 1.2-5.3 1.4-11.6 2.4-22.2 3.4-.4.1-2.2 1.4-4 2.9-2.5 2.2-5.4 3.3-12.3 4.6-10 1.9-14.4 4-16.1 7.7-3 6.2-4.4 10.1-3.9 10.9.2.4 3.7-.1 7.7-1.1 16.3-4.1 72.6-7.3 85.2-4.9 3.3.7 12.1 3.2 19.7 5.6 13.3 4.4 20.8 8.3 31.2 16.6 4 3.2 5 1.5 4.5-7.9-.4-9.2-2.7-14.7-11.2-27.5-6.9-10.3-10.9-14.3-16.1-15.7-4-1.1-20.9-1.4-23.3-.4zM167 510.6c-.6 1.4-1 6.7-1 11.8 0 10.2-.8 11.8-6.5 13.2-4.7 1.1-8.5 3.3-8.5 4.9 0 .8 1.3 2.1 2.8 2.9 5 2.6 5.7 4.2 3.7 8-1.8 3.3-1.8 3.5.3 7.5 1.2 2.3 2.2 5.8 2.2 7.7 0 2 .8 5.8 1.7 8.6l1.8 4.9-4.4 4c-3.4 3.2-4.2 4.4-3.6 6.2 2 6.3 1.8 8.4-1.9 13.1-3.9 5.1-4.4 8.1-2.1 11.2 1.9 2.5 1.9 5.3 0 9.7-2.7 6.5-2 12.7 2.6 21.7 5.5 10.7 5.2 14.3-2.3 30-7.1 14.6-8.1 18.1-7.6 24.2.6 5.6 4.1 10 11.4 14.3 2.2 1.3 5.7 4.2 7.7 6.4 3.2 3.5 3.7 4.8 3.7 8.9 0 2.6-.5 6.7-1.1 9.2-.5 2.4-1.4 7.5-1.9 11.3-.9 7.3-2.2 9.7-5.1 9.7-2.7 0-2.4 1.9.8 5.2 3.1 3.3 7.2 3.6 14.9 1.3 6.1-1.8 6.4-1.8 6.4 0 0 .9-1.5 2.5-3.4 3.6-4.3 2.5-6.6 6-6.6 9.8 0 4.2 1.3 4.6 7.4 2 3.1-1.2 6.2-1.9 7.2-1.5 1.6.6 1.5.8-.4 2.9-3 3.2-6.9 14.1-7.7 21.8-1.1 10.6 1.2 14.7 3.5 6.4.9-3.2 1.8-4.5 3-4.5 3.5 0 4 5.9 1.1 14.3-4.1 11.9-3.6 25.4 1.2 32.4 2.9 4.3 4.4 4.1 6.3-.7 1.8-4.6 6.4-8.3 8.9-7.4 1.8.7 1.8 1-1.6 10.1-1.3 3.4-2.1 6.5-1.7 6.9.4.3 2.2-.3 4.1-1.5 8.4-5.1 9.8-1.3 4.3 11.4-3.8 8.8-3.7 10 1.4 16.6 3 3.7 3 3.7 2.4 13.6-.7 10.5.2 15.7 3.6 20 2.2 2.8 3 2 6-6.4 2.3-6.3 7-12 8.9-10.9 2.2 1.4 1.1 7.2-2.4 13.1-3.9 6.4-5 9.7-4.1 12.1.5 1.4 1 1.3 4.2-.5 2-1.2 3.9-2 4.1-1.7.9.9-2.7 6.5-5.4 8.3-4.8 3.4-9.1 4.6-13.3 3.9-4.5-.7-4.9 0-2 3.7 3.1 4 7.9 5 19.7 4.4 9.5-.4 10.3-.3 10.3 1.4 0 5.5 4.4 8.9 11.6 8.9h3.3l.3 6.2.3 6.3h10l-.1 4.5c-.2 4.2-2.7 10.1-6.2 14.2-2.2 2.6-.6 3.8 5.2 3.8 6.6 0 11.3-2.8 14-8.4 1.7-3.5 2-3.7 2.7-2 .4 1 .8 3.8.8 6.1.1 5.6 2.3 5.7 7.6.3 5.4-5.6 6.5-5.3 6.5 1.8 0 11.8 5.5 20.1 15.4 23.5 4.8 1.6 6.6 1.3 6.6-1.3 0-2 5.4-7 7.5-7 .7 0 2.6-1.1 4.2-2.4l2.8-2.3 3.5 4.4c4.4 5.6 11.3 10.5 14.3 10.1 1.9-.3 2.3-1.1 2.7-5.8l.5-5.5 2.7 5.7c2.6 5.7 8 11.9 15.1 17.2l3.7 2.8 5.3-3.6c5.8-4 11.7-11.3 14.7-17.9l1.9-4.2v4.2c.1 5.5.9 7.3 3.2 7.3 3 0 9.2-4.6 13.7-10.1 2.2-2.7 4.3-4.5 4.7-4 .3.6 3.3 2.5 6.6 4.2 4.3 2.3 6.1 3.9 6.6 5.8.3 1.4 1 2.9 1.6 3.2 1.9 1.3 10-2.4 14.2-6.5 4.9-4.6 6.5-9.1 6.5-17.9 0-7 1.1-7.2 6.5-1.7 5.3 5.4 7.5 5.3 7.6-.3 0-2.3.4-5.1.8-6.2.7-1.8 1.1-1.5 3 2.3 2.9 5.7 7.2 8.2 13.9 8.2 3.5 0 5.4-.5 5.8-1.3.3-.8-1.1-3.7-3-6.6-3.6-5.3-5.3-10.8-4.2-13.7.5-1.3 1.5-1.5 5-1 5.1.8 5.6.1 5.6-7.3v-4.8l5.8-.6c6.5-.7 9.2-3 9.2-7.8v-2.8l9.3.6c5.2.3 11 .3 13-.1 4.3-.8 9.7-5 9.7-7.6 0-1.6-.4-1.7-2.9-.7-5.3 2-15.7-2.6-18.6-8.3-.9-1.8-1.4-3.4-1.2-3.6.2-.3 2.1.5 4 1.6 2 1.2 4.1 1.9 4.7 1.5 1.4-.9.2-5.2-2.9-10.5-5.4-9.2-6.6-14.5-3.4-15.7 2.4-.9 5.6 3.3 8.8 11.6 1.5 3.9 3 7.3 3.5 7.6 1.9 1.2 7-11.2 7-17.1 0-1.8-.5-5.5-1.2-8.3-1.1-5-1.1-5.2 2.5-10.4 4.5-6.5 4.6-9.2.7-17.6-3.7-7.8-3.7-11.5.1-11.9 1.7-.2 3.7.6 5.7 2.3 1.7 1.4 3.3 2.2 3.5 1.8.4-.7-2.7-11-4.7-15.4-1.2-2.8 1.9-2.9 5.7-.3 2.1 1.4 4 3.8 4.7 5.9.6 1.9 1.5 3.5 2 3.5 1.6 0 5.9-6.1 7-9.8 1.5-5.7 1.2-14.1-1-22.3-1.1-4.1-2-9.8-2-12.7 0-4.4.3-5.2 1.9-5.2 2 0 3.1 1.8 3.1 5.3 0 1.2.5 2.9 1 3.7.9 1.3 1.1 1.3 2 0 3.2-4.9-1.2-25.9-6.8-32.3-2.5-2.8-.2-4.2 4.5-2.7 2.1.7 4.2 1.6 4.8 2.1.5.5 1.7.9 2.7.9 1.4 0 1.8-.8 1.8-3.4 0-5-.8-6.3-5.6-9.7-4.2-2.9-5.8-5.9-3.1-5.9.6 0 3 .7 5.2 1.5 6.7 2.4 11.7 1.9 14.8-1.3 3.1-3.3 3.5-5.2.9-5.2-3 0-4.2-2.1-4.2-7.2 0-2.6-.4-5.7-.9-7-.5-1.3-1.6-5.3-2.5-9-2.4-10.8-.2-14.9 13.1-23.9 5.8-3.9 7.4-5.6 8.8-9.2 1.5-4 1.5-4.8 0-10.5-.8-3.4-4-11.2-7-17.3-4.9-10-5.5-11.9-5.5-17.6 0-5.4.6-7.5 4-14.3 4.4-8.8 4.7-10.9 2.4-18.1-1-3-1.4-6.1-1-8.1 2.1-9.9 2-10.4-1.9-14.7-3.8-4.2-4.1-6.2-2-12.9.6-1.8 0-2.9-3.4-6-4.3-4-4.9-6.2-2.6-10.2.8-1.4 1.4-4.4 1.5-6.7 0-2.3 1-6.1 2.2-8.4 2.1-4.1 2.1-4.2.2-7.6-2-3.9-2-4 4.6-8.4 3.4-2.3 2-4.4-4.2-6.4-8.6-2.8-8.8-3.2-8.8-15.5 0-12.9-.9-14.6-6.7-11.5-1.9 1.1-4.3 3-5.4 4.3-2.6 3.3-2.5 9.6.2 13.4l2.1 2.9-2.6 2.8c-3.1 3.3-3.2 4.2-.6 6.6 2.4 2.1 2.6 4.8.5 6.5-1.1.9-1.5 3.2-1.5 8 0 3.7-.3 8.2-.6 9.9-.6 2.9-.9 3.1-5 3.1-5.6 0-8.4 2.6-8.4 7.5 0 4 2.8 10.1 5.9 12.9 2.9 2.6 2.7 3.4-2 7.7-3.7 3.4-4.1 4.2-3.5 7.1 2.1 10.2 2.2 9.8-1.7 9.8-7.1 0-8.3 1.9-4.6 7 1.8 2.3 2 3.6 1.5 7.3-1 6.3-2.8 7.6-6.6 4.9-5.5-4.1-9-2.4-9 4.5v4.3h-5.4c-6.5 0-7.5 1.4-4.6 6.8 3.8 7.1 1.8 19.1-4.7 27.9-3.4 4.6-6.1 4.3-8.1-.8-1.5-3.8-1.8-4-4.6-3.5-1.7.4-5.9 2-9.3 3.6-9.8 4.8-15.3 3.5-10.8-2.4 3.1-4.2.7-15.6-3.3-15.6-1.8 0-4.2-1.8-4.2-3.2 0-.4 2.1-2.1 4.6-3.8 3.6-2.6 4.5-3.7 4.2-5.7-.2-2-1.3-2.9-4.8-4.2-5.7-2.1-7.1-5.3-4.9-11.3 1.1-3.1 2.1-4.2 3.8-4.3 3.7-.3 5.6-3.1 5.6-8.5 0-3.7.5-5.4 2.2-6.9 1.8-1.7 2.1-2.8 1.6-5.8-.3-2.1-1.2-4.9-2-6.2l-1.5-2.4-2.6 2.8-2.6 2.8-10.5-11.2C468.2 582 463 577 462.4 577c-1.5 0-2.4 2.3-2.4 6.1 0 2.5-.4 2.9-2.8 2.9-4 0-6.4-2.1-13.1-11.3-4-5.5-7.3-8.9-9.6-10-5.9-2.8-7.9-2-5.3 2.2 3.2 5.1-3.1 6.9-7.7 2.1-2-2.1-3.8-3-6.1-3-2.1 0-4.4-1-6.5-2.7-2.7-2.3-4.4-2.8-9.9-3.1-9.4-.6-17.7 1.3-21.2 4.8l-2.8 2.8-2.8-2.8c-5.5-5.5-24.5-6.9-29.6-2.1-1.6 1.5-4.2 2.5-7.1 2.8-3.6.5-5 1.2-6.6 3.5-1.7 2.3-2.7 2.8-5.3 2.6-3.5-.3-4.8-3.6-2.1-5.8 2.2-1.8 1.9-3-.8-3-3.7 0-9.9 5.1-15 12.3-2.6 3.6-5.9 7.5-7.3 8.6-5 4-9.4 1.9-9.4-4.3 0-5.3-2.1-3.7-17 13.2-3 3.4-6 6.2-6.6 6.2-.6 0-1.6-1.1-2.2-2.5-1.5-3.3-2.8-3.2-4.7.5-2.1 4.1-1.9 9.2.5 11.3 1.5 1.3 2 2.9 2 6.7 0 5.4 2.3 9 5.9 9 1.4 0 2.4 1.3 3.6 4.4 2.1 5.5 1.3 7.2-5.2 10.6-7.1 3.8-6.9 4.9 2.1 12.7 1.9 1.6 1.9 1.7.1 2.7-5.1 2.9-7.5 6.4-7.5 10.8.1 2.4.7 5.4 1.5 6.8.8 1.4 1.4 3.1 1.5 3.7 0 2.2-5.5 1.4-12.1-1.6-10.6-4.9-11.4-5-13.9-.2-2.5 5-5 5.3-8.1 1-6.6-9.2-8.7-21.7-4.9-28.2 3-5.1 1.9-6.7-4.6-6.7H214v-3.6c0-7.1-3.6-9.4-8.7-5.5-3.2 2.6-5 1.8-6.3-2.7-1.4-5.1-1.3-6 1-8.9 3.7-4.7 2.3-7.3-4-7.3-3.4 0-4.3-2.5-2.8-7.4 1.5-4.8.3-8.1-3.7-10.6-4.1-2.6-4.3-3.9-1.1-6.9 3.5-3.3 5.6-8.2 5.6-12.9 0-5.4-2-7.2-8-7.2-5.9 0-6.8-1.6-4.9-8.9 1.1-4.6 1.1-5.2-1.4-10-3.3-6.2-3.3-6.8-.4-9.9l2.2-2.4-2.2-1.8c-2.8-2.2-2.9-4.6-.3-8.5 2.7-4 2.5-7.1-.6-11.2-2.4-3.1-7.1-6.3-9.4-6.3-.6 0-1.5 1.2-2 2.6zm231 82.6c4.2.8 6.2 1.8 8.7 4.6 3 3.3 3.5 3.5 8 2.9 4.7-.5 4.9-.4 7.4 3.2 2.7 3.8 5.7 5.1 11.9 5.1 3.3 0 4.7 1.5 5.2 5.5.3 2.9.5 3 6.1 3.3 5 .3 5.9.6 6.7 2.6.6 1.7 2 2.6 4.7 3.1 7.7 1.4 9.5 4.6 4.8 8.7-2.1 1.8-2.4 2.7-1.8 6 .5 3.3.2 4.3-1.9 6.6-6.1 6.5-6.3 10.2-.6 13.9l4.2 2.8-6.7.3c-3.7.2-6.7.7-6.7 1.1 0 .4 2 3.9 4.5 7.7 6.3 9.6 6 10.7-1.1 4.9-2.3-1.9-4.7-3.5-5.3-3.5-.6 0-1.1 1.9-1.1 4.4 0 2.8-.7 5.2-2 6.9-1.1 1.4-2 3.5-2 4.7 0 1.9-.4 2.1-2.5 1.6-2.3-.6-2.7-.2-2.7 2.4 0 .3.3 2.3.7 4.5.7 3.9.6 3.9-1.2 2.2-3.7-3.3-5.5-1.6-7.3 7-.6 2.6-1.5 5.4-2 6.2-1.2 2-3.2.3-6.8-6.3-1.7-2.8-3.7-5.8-4.6-6.5-1.4-1.2-1.9-.8-3.9 3.7-1.2 2.9-2.7 5.2-3.4 5.2-1.6 0-6.3-5.8-8.4-10.5-1.1-2.3-1.9-6.4-1.9-9.7 0-4.6-.5-6.2-2.5-8.6-3.4-4.1-10.2-6.2-19.5-6.2s-16.1 2.1-19.5 6.2c-2.1 2.4-2.5 4-2.5 9.1 0 6.9-2.2 12.5-6.3 16.9-3.6 3.8-5 3.5-6.8-1.4-.9-2.3-2.1-4.4-2.7-4.6-.6-.2-2.6 1.8-4.4 4.4-1.8 2.6-4.3 5.9-5.5 7.3-2.8 3.2-3.6 2.3-5.2-6-1.4-6.8-3.5-8.7-7-6.3-2.1 1.5-2.1 1.5-1.5-4.1l.7-5.6-2.7.7c-2.3.5-2.6.3-2.6-1.8 0-1.4-.9-3.3-2.1-4.4-1.7-1.6-2-2.6-1.5-6.2.8-5.7-1.1-6.4-6.1-2.3-6.7 5.5-7.2 3.4-1.3-5 2.2-3.2 4-6.2 4-6.8 0-.7-2.3-1.1-6-1.1-3.3 0-6-.4-6-1s.5-1 1-1c2 0 6-4.9 6-7.2 0-1.3-1.3-3.9-2.8-5.8-1.6-1.9-3.5-4.6-4.2-5.9-1.1-2.1-1-2.6.6-3.8 1.7-1.2 1.6-1.5-1.4-4.6-1.8-1.8-3.2-3.8-3.2-4.4 0-1.8 3-3.7 7.4-4.8 3-.8 4.2-1.6 4.4-3.2.3-2 1-2.2 7-2.5l6.7-.3v-8l6.4-.7c6.5-.7 10.4-3 11.6-6.9.5-1.5 1.4-1.7 5.7-1.2 4.8.6 5.1.5 8.3-3 2.2-2.4 4.5-3.8 7.1-4.2 2.2-.4 4.4-.8 4.9-1 2.8-.8 37.7-.2 42.5.7z"/></g></svg>