<?xml version="1.0" standalone="no"?>
<!DOCTYPE svg PUBLIC "-//W3C//DTD SVG 20010904//EN"
 "http://www.w3.org/TR/2001/REC-SVG-20010904/DTD/svg10.dtd">
<svg version="1.0" xmlns="http://www.w3.org/2000/svg"
 width="750.000000pt" height="1058.000000pt" viewBox="0 0 750.000000 1058.000000"
 preserveAspectRatio="xMidYMid meet">

<g transform="translate(0.000000,1058.000000) scale(0.100000,-0.100000)"
fill="#fff" stroke="none">
<path d="M3568 10296 c-32 -7 -68 -22 -81 -34 -17 -16 -58 -29 -153 -48 -187
-38 -197 -40 -327 -73 -230 -60 -409 -126 -603 -222 -356 -176 -547 -366 -704
-695 -174 -367 -219 -709 -175 -1324 19 -271 19 -390 -2 -486 -12 -56 -17
-126 -18 -239 0 -147 2 -164 23 -212 30 -65 55 -89 114 -104 37 -10 58 -10 99
-1 48 11 255 94 429 171 36 16 108 46 160 66 52 20 106 42 120 47 87 36 427
141 538 167 584 135 1155 117 1732 -55 181 -54 459 -156 635 -234 22 -10 81
-34 130 -55 50 -21 119 -50 155 -65 129 -55 187 -62 250 -30 46 23 83 75 101
140 17 64 13 258 -7 365 -22 112 -24 289 -5 560 27 392 3 786 -58 972 -10 32
-31 96 -46 142 -64 200 -211 441 -353 579 -281 272 -711 459 -1358 587 -91 19
-135 32 -151 47 -12 11 -48 26 -80 34 -72 17 -287 17 -365 0z m-23 -561 l25
-24 0 -321 0 -321 -25 -24 c-30 -31 -92 -34 -126 -6 l-24 19 -3 314 c-2 198 1
325 7 342 20 50 105 63 146 21z m231 0 c23 -23 25 -31 22 -112 l-3 -88 -30 0
-30 0 -5 85 c-4 67 -8 85 -20 85 -28 0 -14 -118 39 -333 59 -233 63 -291 26
-327 -17 -17 -35 -25 -60 -25 -74 0 -95 35 -95 156 l0 74 35 0 35 0 0 -79 c0
-53 4 -82 13 -90 20 -16 27 -3 27 53 -1 59 -11 109 -69 329 -44 168 -47 196
-30 244 19 56 101 72 145 28z m-650 4 c4 -8 9 -8 17 0 15 15 74 14 80 -1 4
-10 7 -10 18 0 21 19 77 15 89 -7 6 -13 10 -145 10 -360 l0 -341 -35 0 -35 0
0 335 c0 328 0 335 -20 335 -20 0 -20 -7 -20 -335 l0 -335 -30 0 -30 0 0 329
c0 263 -3 331 -13 340 -8 6 -17 8 -20 4 -4 -3 -7 -156 -7 -340 l0 -333 -35 0
-35 0 0 360 0 360 29 0 c17 0 33 -5 37 -11z m894 -19 c0 -27 -3 -30 -30 -30
l-30 0 0 -330 0 -330 -30 0 -30 0 0 330 0 330 -30 0 c-27 0 -30 3 -30 30 l0
30 90 0 90 0 0 -30z m110 -300 l0 -330 40 0 c38 0 40 -2 40 -30 l0 -30 -75 0
-75 0 0 360 0 360 35 0 35 0 0 -330z m192 148 c2 -114 7 -183 13 -183 6 0 11
69 13 183 l2 182 35 0 35 0 0 -344 0 -345 -26 -20 c-34 -27 -94 -28 -125 -2
-22 18 -24 27 -27 135 l-4 116 41 0 40 0 3 -107 c4 -155 22 -138 26 22 l3 131
-40 -4 c-66 -6 -71 10 -71 230 l0 188 40 0 40 0 2 -182z m-962 -636 c21 -17
23 -28 24 -108 l1 -89 -32 -3 -32 -3 -3 83 c-3 70 -6 83 -20 86 -32 6 -22 -90
34 -314 70 -283 68 -352 -9 -367 -36 -7 -91 11 -103 33 -5 10 -10 59 -10 109
l0 91 35 0 35 0 0 -90 c0 -74 3 -90 15 -90 9 0 18 7 22 16 10 26 -14 157 -58
319 -24 85 -44 183 -46 226 -5 68 -3 79 16 98 27 27 99 29 131 3z m465 -5 c13
-21 15 -72 13 -363 l-3 -339 -30 0 -30 0 -5 335 c-4 289 -7 335 -20 335 -13 0
-15 -45 -18 -337 l-2 -338 -30 0 -30 0 0 360 0 360 30 0 c17 0 30 -5 30 -11 0
-5 10 -3 22 5 32 22 55 20 73 -7z m216 13 c18 -10 19 -25 19 -365 l0 -355 -30
0 -30 0 -2 337 c-3 312 -4 338 -20 341 -17 3 -18 -20 -20 -335 l-3 -338 -30 0
-30 0 -3 358 -2 358 45 -2 c24 -2 48 0 51 4 10 10 32 9 55 -3z m-531 -336 c0
-314 1 -335 18 -332 16 3 17 28 20 336 l2 332 30 0 30 0 0 -343 c0 -393 3
-378 -86 -380 -38 0 -51 4 -66 22 -17 22 -18 48 -18 362 l0 339 35 0 35 0 0
-336z m682 159 c3 -150 5 -178 18 -178 13 0 15 28 18 178 l2 177 35 0 35 0 0
-336 c0 -207 -4 -343 -10 -354 -14 -27 -71 -41 -115 -29 -19 6 -39 18 -45 29
-5 10 -10 68 -10 129 l0 111 35 0 34 0 3 -107 c2 -88 6 -108 18 -108 12 0 15
22 18 127 l3 127 -35 -6 c-26 -4 -39 0 -55 16 -20 20 -21 31 -21 211 l0 190
35 0 35 0 2 -177z"/>
<path d="M3465 9698 c-3 -7 -4 -150 -3 -318 3 -263 5 -305 18 -305 13 0 15 42
15 314 0 243 -3 315 -12 318 -7 3 -15 -1 -18 -9z"/>
<path d="M2159 6900 c-70 -21 -163 -135 -239 -290 -34 -72 -40 -93 -40 -151 0
-92 13 -101 76 -51 98 76 147 101 287 146 203 65 223 68 429 63 256 -6 523
-32 661 -66 47 -11 49 3 7 86 -35 70 -48 78 -173 99 -70 12 -98 21 -118 40
-29 28 -77 44 -130 44 -19 0 -73 10 -120 21 -73 19 -103 21 -227 16 -142 -5
-143 -5 -152 18 -5 12 -16 25 -25 29 -23 9 -204 6 -236 -4z"/>
<path d="M5112 6903 c-7 -3 -17 -15 -22 -28 -9 -23 -10 -23 -157 -18 -119 4
-161 2 -213 -12 -53 -14 -116 -24 -222 -34 -4 -1 -22 -14 -40 -29 -25 -22 -54
-33 -123 -46 -100 -19 -144 -40 -161 -77 -30 -62 -44 -101 -39 -109 2 -4 37 1
77 11 163 41 726 73 852 49 33 -7 121 -32 197 -56 133 -44 208 -83 312 -166
40 -32 50 -15 45 79 -4 92 -27 147 -112 275 -69 103 -109 143 -161 157 -40 11
-209 14 -233 4z"/>
<path d="M1670 5474 c-6 -14 -10 -67 -10 -118 0 -102 -8 -118 -65 -132 -47
-11 -85 -33 -85 -49 0 -8 13 -21 28 -29 50 -26 57 -42 37 -80 -18 -33 -18 -35
3 -75 12 -23 22 -58 22 -77 0 -20 8 -58 17 -86 l18 -49 -44 -40 c-34 -32 -42
-44 -36 -62 20 -63 18 -84 -19 -131 -39 -51 -44 -81 -21 -112 19 -25 19 -53 0
-97 -27 -65 -20 -127 26 -217 55 -107 52 -143 -23 -300 -71 -146 -81 -181 -76
-242 6 -56 41 -100 114 -143 22 -13 57 -42 77 -64 32 -35 37 -48 37 -89 0 -26
-5 -67 -11 -92 -5 -24 -14 -75 -19 -113 -9 -73 -22 -97 -51 -97 -27 0 -24 -19
8 -52 31 -33 72 -36 149 -13 61 18 64 18 64 0 0 -9 -15 -25 -34 -36 -43 -25
-66 -60 -66 -98 0 -42 13 -46 74 -20 31 12 62 19 72 15 16 -6 15 -8 -4 -29
-30 -32 -69 -141 -77 -218 -11 -106 12 -147 35 -64 9 32 18 45 30 45 35 0 40
-59 11 -143 -41 -119 -36 -254 12 -324 29 -43 44 -41 63 7 18 46 64 83 89 74
18 -7 18 -10 -16 -101 -13 -34 -21 -65 -17 -69 4 -3 22 3 41 15 84 51 98 13
43 -114 -38 -88 -37 -100 14 -166 30 -37 30 -37 24 -136 -7 -105 2 -157 36
-200 22 -28 30 -20 60 64 23 63 70 120 89 109 22 -14 11 -72 -24 -131 -39 -64
-50 -97 -41 -121 5 -14 10 -13 42 5 20 12 39 20 41 17 9 -9 -27 -65 -54 -83
-48 -34 -91 -46 -133 -39 -45 7 -49 0 -20 -37 31 -40 79 -50 197 -44 95 4 103
3 103 -14 0 -55 44 -89 116 -89 l33 0 3 -62 3 -63 50 0 50 0 -1 -45 c-2 -42
-27 -101 -62 -142 -22 -26 -6 -38 52 -38 66 0 113 28 140 84 17 35 20 37 27
20 4 -10 8 -38 8 -61 1 -56 23 -57 76 -3 54 56 65 53 65 -18 0 -118 55 -201
154 -235 48 -16 66 -13 66 13 0 20 54 70 75 70 7 0 26 11 42 24 l28 23 35 -44
c44 -56 113 -105 143 -101 19 3 23 11 27 58 l5 55 27 -57 c26 -57 80 -119 151
-172 l37 -28 53 36 c58 40 117 113 147 179 l19 42 0 -42 c1 -55 9 -73 32 -73
30 0 92 46 137 101 22 27 43 45 47 40 3 -6 33 -25 66 -42 43 -23 61 -39 66
-58 3 -14 10 -29 16 -32 19 -13 100 24 142 65 49 46 65 91 65 179 0 70 11 72
65 17 53 -54 75 -53 76 3 0 23 4 51 8 62 7 18 11 15 30 -23 29 -57 72 -82 139
-82 35 0 54 5 58 13 3 8 -11 37 -30 66 -36 53 -53 108 -42 137 5 13 15 15 50
10 51 -8 56 -1 56 73 l0 48 58 6 c65 7 92 30 92 78 l0 28 93 -6 c52 -3 110 -3
130 1 43 8 97 50 97 76 0 16 -4 17 -29 7 -53 -20 -157 26 -186 83 -9 18 -14
34 -12 36 2 3 21 -5 40 -16 20 -12 41 -19 47 -15 14 9 2 52 -29 105 -54 92
-66 145 -34 157 24 9 56 -33 88 -116 15 -39 30 -73 35 -76 19 -12 70 112 70
171 0 18 -5 55 -12 83 -11 50 -11 52 25 104 45 65 46 92 7 176 -37 78 -37 115
1 119 17 2 37 -6 57 -23 17 -14 33 -22 35 -18 4 7 -27 110 -47 154 -12 28 19
29 57 3 21 -14 40 -38 47 -59 6 -19 15 -35 20 -35 16 0 59 61 70 98 15 57 12
141 -10 223 -11 41 -20 98 -20 127 0 44 3 52 19 52 20 0 31 -18 31 -53 0 -12
5 -29 10 -37 9 -13 11 -13 20 0 32 49 -12 259 -68 323 -25 28 -2 42 45 27 21
-7 42 -16 48 -21 5 -5 17 -9 27 -9 14 0 18 8 18 34 0 50 -8 63 -56 97 -42 29
-58 59 -31 59 6 0 30 -7 52 -15 67 -24 117 -19 148 13 31 33 35 52 9 52 -30 0
-42 21 -42 72 0 26 -4 57 -9 70 -5 13 -16 53 -25 90 -24 108 -2 149 131 239
58 39 74 56 88 92 15 40 15 48 0 105 -8 34 -40 112 -70 173 -49 100 -55 119
-55 176 0 54 6 75 40 143 44 88 47 109 24 181 -10 30 -14 61 -10 81 21 99 20
104 -19 147 -38 42 -41 62 -20 129 6 18 0 29 -34 60 -43 40 -49 62 -26 102 8
14 14 44 15 67 0 23 10 61 22 84 21 41 21 42 2 76 -20 39 -20 40 46 84 34 23
20 44 -42 64 -86 28 -88 32 -88 155 0 129 -9 146 -67 115 -19 -11 -43 -30 -54
-43 -26 -33 -25 -96 2 -134 l21 -29 -26 -28 c-31 -33 -32 -42 -6 -66 24 -21
26 -48 5 -65 -11 -9 -15 -32 -15 -80 0 -37 -3 -82 -6 -99 -6 -29 -9 -31 -50
-31 -56 0 -84 -26 -84 -75 0 -40 28 -101 59 -129 29 -26 27 -34 -20 -77 -37
-34 -41 -42 -35 -71 21 -102 22 -98 -17 -98 -71 0 -83 -19 -46 -70 18 -23 20
-36 15 -73 -10 -63 -28 -76 -66 -49 -55 41 -90 24 -90 -45 l0 -43 -54 0 c-65
0 -75 -14 -46 -68 38 -71 18 -191 -47 -279 -34 -46 -61 -43 -81 8 -15 38 -18
40 -46 35 -17 -4 -59 -20 -93 -36 -98 -48 -153 -35 -108 24 31 42 7 156 -33
156 -18 0 -42 18 -42 32 0 4 21 21 46 38 36 26 45 37 42 57 -2 20 -13 29 -48
42 -57 21 -71 53 -49 113 11 31 21 42 38 43 37 3 56 31 56 85 0 37 5 54 22 69
18 17 21 28 16 58 -3 21 -12 49 -20 62 l-15 24 -26 -28 -26 -28 -105 112 c-59
61 -111 111 -117 111 -15 0 -24 -23 -24 -61 0 -25 -4 -29 -28 -29 -40 0 -64
21 -131 113 -40 55 -73 89 -96 100 -59 28 -79 20 -53 -22 32 -51 -31 -69 -77
-21 -20 21 -38 30 -61 30 -21 0 -44 10 -65 27 -27 23 -44 28 -99 31 -94 6
-177 -13 -212 -48 l-28 -28 -28 28 c-55 55 -245 69 -296 21 -16 -15 -42 -25
-71 -28 -36 -5 -50 -12 -66 -35 -17 -23 -27 -28 -53 -26 -35 3 -48 36 -21 58
22 18 19 30 -8 30 -37 0 -99 -51 -150 -123 -26 -36 -59 -75 -73 -86 -50 -40
-94 -19 -94 43 0 53 -21 37 -170 -132 -30 -34 -60 -62 -66 -62 -6 0 -16 11
-22 25 -15 33 -28 32 -47 -5 -21 -41 -19 -92 5 -113 15 -13 20 -29 20 -67 0
-54 23 -90 59 -90 14 0 24 -13 36 -44 21 -55 13 -72 -52 -106 -71 -38 -69 -49
21 -127 19 -16 19 -17 1 -27 -51 -29 -75 -64 -75 -108 1 -24 7 -54 15 -68 8
-14 14 -31 15 -37 0 -22 -55 -14 -121 16 -106 49 -114 50 -139 2 -25 -50 -50
-53 -81 -10 -66 92 -87 217 -49 282 30 51 19 67 -46 67 l-54 0 0 36 c0 71 -36
94 -87 55 -32 -26 -50 -18 -63 27 -14 51 -13 60 10 89 37 47 23 73 -40 73 -34
0 -43 25 -28 74 15 48 3 81 -37 106 -41 26 -43 39 -11 69 35 33 56 82 56 129
0 54 -20 72 -80 72 -59 0 -68 16 -49 89 11 46 11 52 -14 100 -33 62 -33 68 -4
99 l22 24 -22 18 c-28 22 -29 46 -3 85 27 40 25 71 -6 112 -24 31 -71 63 -94
63 -6 0 -15 -12 -20 -26z m2310 -826 c42 -8 62 -18 87 -46 30 -33 35 -35 80
-29 47 5 49 4 74 -32 27 -38 57 -51 119 -51 33 0 47 -15 52 -55 3 -29 5 -30
61 -33 50 -3 59 -6 67 -26 6 -17 20 -26 47 -31 77 -14 95 -46 48 -87 -21 -18
-24 -27 -18 -60 5 -33 2 -43 -19 -66 -61 -65 -63 -102 -6 -139 l42 -28 -67 -3
c-37 -2 -67 -7 -67 -11 0 -4 20 -39 45 -77 63 -96 60 -107 -11 -49 -23 19 -47
35 -53 35 -6 0 -11 -19 -11 -44 0 -28 -7 -52 -20 -69 -11 -14 -20 -35 -20 -47
0 -19 -4 -21 -25 -16 -23 6 -27 2 -27 -24 0 -3 3 -23 7 -45 7 -39 6 -39 -12
-22 -37 33 -55 16 -73 -70 -6 -26 -15 -54 -20 -62 -12 -20 -32 -3 -68 63 -17
28 -37 58 -46 65 -14 12 -19 8 -39 -37 -12 -29 -27 -52 -34 -52 -16 0 -63 58
-84 105 -11 23 -19 64 -19 97 0 46 -5 62 -25 86 -34 41 -102 62 -195 62 -93 0
-161 -21 -195 -62 -21 -24 -25 -40 -25 -91 0 -69 -22 -125 -63 -169 -36 -38
-50 -35 -68 14 -9 23 -21 44 -27 46 -6 2 -26 -18 -44 -44 -18 -26 -43 -59 -55
-73 -28 -32 -36 -23 -52 60 -14 68 -35 87 -70 63 -21 -15 -21 -15 -15 41 l7
56 -27 -7 c-23 -5 -26 -3 -26 18 0 14 -9 33 -21 44 -17 16 -20 26 -15 62 8 57
-11 64 -61 23 -67 -55 -72 -34 -13 50 22 32 40 62 40 68 0 7 -23 11 -60 11
-33 0 -60 4 -60 10 0 6 5 10 10 10 20 0 60 49 60 72 0 13 -13 39 -28 58 -16
19 -35 46 -42 59 -11 21 -10 26 6 38 17 12 16 15 -14 46 -18 18 -32 38 -32 44
0 18 30 37 74 48 30 8 42 16 44 32 3 20 10 22 70 25 l67 3 0 40 0 40 64 7 c65
7 104 30 116 69 5 15 14 17 57 12 48 -6 51 -5 83 30 22 24 45 38 71 42 22 4
44 8 49 10 28 8 377 2 425 -7z"/>
</g>
</svg>
